ISO-10303-21;
HEADER;
FILE_DESCRIPTION(('FreeCAD Model'),'2;1');
FILE_NAME('Open CASCADE Shape Model','2026-08-25T02:18:48',('FreeCAD'),(
    'FreeCAD'),'Open CASCADE STEP processor 7.8','FreeCAD','Unknown');
FILE_SCHEMA(('AUTOMOTIVE_DESIGN { 1 0 10303 214 1 1 1 1 }'));
ENDSEC;
DATA;
#1 = APPLICATION_PROTOCOL_DEFINITION('international standard',
  'automotive_design',2000,#2);
#2 = APPLICATION_CONTEXT(
  'core data for automotive mechanical design processes');
#3 = SHAPE_DEFINITION_REPRESENTATION(#4,#10);
#4 = PRODUCT_DEFINITION_SHAPE('','',#5);
#5 = PRODUCT_DEFINITION('design','',#6,#9);
#6 = PRODUCT_DEFINITION_FORMATION('','',#7);
#7 = PRODUCT('Open CASCADE STEP translator 7.8 3',
  'Open CASCADE STEP translator 7.8 3','',(#8));
#8 = PRODUCT_CONTEXT('',#2,'mechanical');
#9 = PRODUCT_DEFINITION_CONTEXT('part definition',#2,'design');
#10 = ADVANCED_BREP_SHAPE_REPRESENTATION('',(#11,#15),#1406);
#11 = AXIS2_PLACEMENT_3D('',#12,#13,#14);
#12 = CARTESIAN_POINT('',(0.,0.,0.));
#13 = DIRECTION('',(0.,0.,1.));
#14 = DIRECTION('',(1.,0.,-0.));
#15 = MANIFOLD_SOLID_BREP('',#16);
#16 = CLOSED_SHELL('',(#17,#318,#350,#382,#414,#446,#478,#502,#534,#566,
    #598,#622,#654,#686,#718,#751,#866,#898,#922,#947,#979,#1003,#1028,
    #1060,#1084,#1109,#1129,#1154,#1171,#1188,#1205,#1217,#1229,#1241,
    #1340,#1364,#1378,#1392));
#17 = ADVANCED_FACE('',(#18,#110),#313,.T.);
#18 = FACE_BOUND('',#19,.T.);
#19 = EDGE_LOOP('',(#20,#31,#40,#49,#58,#67,#76,#85,#94,#103));
#20 = ORIENTED_EDGE('',*,*,#21,.F.);
#21 = EDGE_CURVE('',#22,#24,#26,.T.);
#22 = VERTEX_POINT('',#23);
#23 = CARTESIAN_POINT('',(-0.933614114642,54.992075471698,0.));
#24 = VERTEX_POINT('',#25);
#25 = CARTESIAN_POINT('',(2.2,53.,0.));
#26 = CIRCLE('',#27,2.2);
#27 = AXIS2_PLACEMENT_3D('',#28,#29,#30);
#28 = CARTESIAN_POINT('',(3.24531401774E-15,53.,0.));
#29 = DIRECTION('',(0.,0.,1.));
#30 = DIRECTION('',(1.,0.,0.));
#31 = ORIENTED_EDGE('',*,*,#32,.T.);
#32 = EDGE_CURVE('',#22,#33,#35,.T.);
#33 = VERTEX_POINT('',#34);
#34 = CARTESIAN_POINT('',(-48.09134142264,-26.68750419523,0.));
#35 = CIRCLE('',#36,55.);
#36 = AXIS2_PLACEMENT_3D('',#37,#38,#39);
#37 = CARTESIAN_POINT('',(0.,0.,0.));
#38 = DIRECTION('',(0.,0.,1.));
#39 = DIRECTION('',(1.,0.,0.));
#40 = ORIENTED_EDGE('',*,*,#41,.F.);
#41 = EDGE_CURVE('',#42,#33,#44,.T.);
#42 = VERTEX_POINT('',#43);
#43 = CARTESIAN_POINT('',(-43.69934640057,-26.5,0.));
#44 = CIRCLE('',#45,2.2);
#45 = AXIS2_PLACEMENT_3D('',#46,#47,#48);
#46 = CARTESIAN_POINT('',(-45.89934640057,-26.5,0.));
#47 = DIRECTION('',(0.,0.,1.));
#48 = DIRECTION('',(1.,0.,0.));
#49 = ORIENTED_EDGE('',*,*,#50,.F.);
#50 = EDGE_CURVE('',#51,#42,#53,.T.);
#51 = VERTEX_POINT('',#52);
#52 = CARTESIAN_POINT('',(-47.157727308,-28.30457127646,0.));
#53 = CIRCLE('',#54,2.2);
#54 = AXIS2_PLACEMENT_3D('',#55,#56,#57);
#55 = CARTESIAN_POINT('',(-45.89934640057,-26.5,0.));
#56 = DIRECTION('',(0.,0.,1.));
#57 = DIRECTION('',(1.,0.,0.));
#58 = ORIENTED_EDGE('',*,*,#59,.T.);
#59 = EDGE_CURVE('',#51,#60,#62,.T.);
#60 = VERTEX_POINT('',#61);
#61 = CARTESIAN_POINT('',(47.157727308001,-28.30457127646,0.));
#62 = CIRCLE('',#63,55.);
#63 = AXIS2_PLACEMENT_3D('',#64,#65,#66);
#64 = CARTESIAN_POINT('',(0.,0.,0.));
#65 = DIRECTION('',(0.,0.,1.));
#66 = DIRECTION('',(1.,0.,0.));
#67 = ORIENTED_EDGE('',*,*,#68,.F.);
#68 = EDGE_CURVE('',#69,#60,#71,.T.);
#69 = VERTEX_POINT('',#70);
#70 = CARTESIAN_POINT('',(48.099346400575,-26.5,0.));
#71 = CIRCLE('',#72,2.2);
#72 = AXIS2_PLACEMENT_3D('',#73,#74,#75);
#73 = CARTESIAN_POINT('',(45.899346400575,-26.5,0.));
#74 = DIRECTION('',(0.,0.,1.));
#75 = DIRECTION('',(1.,0.,0.));
#76 = ORIENTED_EDGE('',*,*,#77,.F.);
#77 = EDGE_CURVE('',#78,#69,#80,.T.);
#78 = VERTEX_POINT('',#79);
#79 = CARTESIAN_POINT('',(48.091341422643,-26.68750419523,0.));
#80 = CIRCLE('',#81,2.2);
#81 = AXIS2_PLACEMENT_3D('',#82,#83,#84);
#82 = CARTESIAN_POINT('',(45.899346400575,-26.5,0.));
#83 = DIRECTION('',(0.,0.,1.));
#84 = DIRECTION('',(1.,0.,0.));
#85 = ORIENTED_EDGE('',*,*,#86,.T.);
#86 = EDGE_CURVE('',#78,#87,#89,.T.);
#87 = VERTEX_POINT('',#88);
#88 = CARTESIAN_POINT('',(55.,-1.347111479062E-14,0.));
#89 = CIRCLE('',#90,55.);
#90 = AXIS2_PLACEMENT_3D('',#91,#92,#93);
#91 = CARTESIAN_POINT('',(0.,0.,0.));
#92 = DIRECTION('',(0.,0.,1.));
#93 = DIRECTION('',(1.,0.,0.));
#94 = ORIENTED_EDGE('',*,*,#95,.T.);
#95 = EDGE_CURVE('',#87,#96,#98,.T.);
#96 = VERTEX_POINT('',#97);
#97 = CARTESIAN_POINT('',(0.933614114642,54.992075471698,0.));
#98 = CIRCLE('',#99,55.);
#99 = AXIS2_PLACEMENT_3D('',#100,#101,#102);
#100 = CARTESIAN_POINT('',(0.,0.,0.));
#101 = DIRECTION('',(0.,0.,1.));
#102 = DIRECTION('',(1.,0.,0.));
#103 = ORIENTED_EDGE('',*,*,#104,.F.);
#104 = EDGE_CURVE('',#24,#96,#105,.T.);
#105 = CIRCLE('',#106,2.2);
#106 = AXIS2_PLACEMENT_3D('',#107,#108,#109);
#107 = CARTESIAN_POINT('',(3.24531401774E-15,53.,0.));
#108 = DIRECTION('',(0.,0.,1.));
#109 = DIRECTION('',(1.,0.,0.));
#110 = FACE_BOUND('',#111,.T.);
#111 = EDGE_LOOP('',(#112,#123,#131,#140,#148,#157,#165,#173,#181,#190,
    #198,#207,#215,#224,#232,#240,#248,#257,#265,#274,#282,#291,#299,
    #307));
#112 = ORIENTED_EDGE('',*,*,#113,.F.);
#113 = EDGE_CURVE('',#114,#116,#118,.T.);
#114 = VERTEX_POINT('',#115);
#115 = CARTESIAN_POINT('',(16.069690242163,19.151111077974,0.));
#116 = VERTEX_POINT('',#117);
#117 = CARTESIAN_POINT('',(14.191986601946,20.581241854907,0.));
#118 = CIRCLE('',#119,25.);
#119 = AXIS2_PLACEMENT_3D('',#120,#121,#122);
#120 = CARTESIAN_POINT('',(0.,0.,0.));
#121 = DIRECTION('',(0.,0.,1.));
#122 = DIRECTION('',(1.,0.,0.));
#123 = ORIENTED_EDGE('',*,*,#124,.T.);
#124 = EDGE_CURVE('',#114,#125,#127,.T.);
#125 = VERTEX_POINT('',#126);
#126 = CARTESIAN_POINT('',(30.853805264954,36.770133269711,0.));
#127 = LINE('',#128,#129);
#128 = CARTESIAN_POINT('',(0.,0.,5.551115123126E-16));
#129 = VECTOR('',#130,1.);
#130 = DIRECTION('',(0.642787609687,0.766044443119,0.));
#131 = ORIENTED_EDGE('',*,*,#132,.F.);
#132 = EDGE_CURVE('',#133,#125,#135,.T.);
#133 = VERTEX_POINT('',#134);
#134 = CARTESIAN_POINT('',(30.853805264954,-36.77013326971,0.));
#135 = CIRCLE('',#136,48.);
#136 = AXIS2_PLACEMENT_3D('',#137,#138,#139);
#137 = CARTESIAN_POINT('',(0.,0.,0.));
#138 = DIRECTION('',(-0.,0.,1.));
#139 = DIRECTION('',(0.642787609687,-0.766044443119,0.));
#140 = ORIENTED_EDGE('',*,*,#141,.F.);
#141 = EDGE_CURVE('',#142,#133,#144,.T.);
#142 = VERTEX_POINT('',#143);
#143 = CARTESIAN_POINT('',(16.069690242163,-19.15111107797,0.));
#144 = LINE('',#145,#146);
#145 = CARTESIAN_POINT('',(0.,0.,0.));
#146 = VECTOR('',#147,1.);
#147 = DIRECTION('',(0.642787609687,-0.766044443119,0.));
#148 = ORIENTED_EDGE('',*,*,#149,.F.);
#149 = EDGE_CURVE('',#150,#142,#152,.T.);
#150 = VERTEX_POINT('',#151);
#151 = CARTESIAN_POINT('',(14.191986601946,-20.5812418549,0.));
#152 = CIRCLE('',#153,25.);
#153 = AXIS2_PLACEMENT_3D('',#154,#155,#156);
#154 = CARTESIAN_POINT('',(0.,0.,0.));
#155 = DIRECTION('',(0.,0.,1.));
#156 = DIRECTION('',(1.,0.,0.));
#157 = ORIENTED_EDGE('',*,*,#158,.F.);
#158 = EDGE_CURVE('',#159,#150,#161,.T.);
#159 = VERTEX_POINT('',#160);
#160 = CARTESIAN_POINT('',(24.232050807569,-37.9711431703,0.));
#161 = LINE('',#162,#163);
#162 = CARTESIAN_POINT('',(7.232050807569,-8.526279441629,0.));
#163 = VECTOR('',#164,1.);
#164 = DIRECTION('',(-0.5,0.866025403784,0.));
#165 = ORIENTED_EDGE('',*,*,#166,.F.);
#166 = EDGE_CURVE('',#167,#159,#169,.T.);
#167 = VERTEX_POINT('',#168);
#168 = CARTESIAN_POINT('',(20.767949192431,-39.9711431703,0.));
#169 = LINE('',#170,#171);
#170 = CARTESIAN_POINT('',(21.633974596216,-39.4711431703,0.));
#171 = VECTOR('',#172,1.);
#172 = DIRECTION('',(0.866025403784,0.5,0.));
#173 = ORIENTED_EDGE('',*,*,#174,.T.);
#174 = EDGE_CURVE('',#167,#175,#177,.T.);
#175 = VERTEX_POINT('',#176);
#176 = CARTESIAN_POINT('',(10.727884986808,-22.5812418549,0.));
#177 = LINE('',#178,#179);
#178 = CARTESIAN_POINT('',(3.767949192431,-10.52627944162,0.));
#179 = VECTOR('',#180,1.);
#180 = DIRECTION('',(-0.5,0.866025403784,0.));
#181 = ORIENTED_EDGE('',*,*,#182,.F.);
#182 = EDGE_CURVE('',#183,#175,#185,.T.);
#183 = VERTEX_POINT('',#184);
#184 = CARTESIAN_POINT('',(8.550503583142,-23.49231551964,0.));
#185 = CIRCLE('',#186,25.);
#186 = AXIS2_PLACEMENT_3D('',#187,#188,#189);
#187 = CARTESIAN_POINT('',(0.,0.,0.));
#188 = DIRECTION('',(0.,0.,1.));
#189 = DIRECTION('',(1.,0.,0.));
#190 = ORIENTED_EDGE('',*,*,#191,.T.);
#191 = EDGE_CURVE('',#183,#192,#194,.T.);
#192 = VERTEX_POINT('',#193);
#193 = CARTESIAN_POINT('',(16.416966879632,-45.10524579772,0.));
#194 = LINE('',#195,#196);
#195 = CARTESIAN_POINT('',(0.,0.,-2.775557561563E-16));
#196 = VECTOR('',#197,1.);
#197 = DIRECTION('',(0.342020143326,-0.939692620786,0.));
#198 = ORIENTED_EDGE('',*,*,#199,.F.);
#199 = EDGE_CURVE('',#200,#192,#202,.T.);
#200 = VERTEX_POINT('',#201);
#201 = CARTESIAN_POINT('',(-47.27077214458,-8.335112528013,0.));
#202 = CIRCLE('',#203,48.);
#203 = AXIS2_PLACEMENT_3D('',#204,#205,#206);
#204 = CARTESIAN_POINT('',(0.,0.,0.));
#205 = DIRECTION('',(0.,0.,1.));
#206 = DIRECTION('',(-0.984807753012,-0.173648177667,0.));
#207 = ORIENTED_EDGE('',*,*,#208,.F.);
#208 = EDGE_CURVE('',#209,#200,#211,.T.);
#209 = VERTEX_POINT('',#210);
#210 = CARTESIAN_POINT('',(-24.6201938253,-4.341204441673,0.));
#211 = LINE('',#212,#213);
#212 = CARTESIAN_POINT('',(0.,0.,5.551115123126E-16));
#213 = VECTOR('',#214,1.);
#214 = DIRECTION('',(-0.984807753012,-0.173648177667,0.));
#215 = ORIENTED_EDGE('',*,*,#216,.F.);
#216 = EDGE_CURVE('',#217,#209,#219,.T.);
#217 = VERTEX_POINT('',#218);
#218 = CARTESIAN_POINT('',(-24.91987158875,-2.,0.));
#219 = CIRCLE('',#220,25.);
#220 = AXIS2_PLACEMENT_3D('',#221,#222,#223);
#221 = CARTESIAN_POINT('',(0.,0.,0.));
#222 = DIRECTION('',(0.,0.,1.));
#223 = DIRECTION('',(1.,0.,0.));
#224 = ORIENTED_EDGE('',*,*,#225,.F.);
#225 = EDGE_CURVE('',#226,#217,#228,.T.);
#226 = VERTEX_POINT('',#227);
#227 = CARTESIAN_POINT('',(-45.,-2.,0.));
#228 = LINE('',#229,#230);
#229 = CARTESIAN_POINT('',(-11.,-2.,0.));
#230 = VECTOR('',#231,1.);
#231 = DIRECTION('',(1.,-1.224646799147E-16,0.));
#232 = ORIENTED_EDGE('',*,*,#233,.F.);
#233 = EDGE_CURVE('',#234,#226,#236,.T.);
#234 = VERTEX_POINT('',#235);
#235 = CARTESIAN_POINT('',(-45.,2.,0.));
#236 = LINE('',#237,#238);
#237 = CARTESIAN_POINT('',(-45.,1.,0.));
#238 = VECTOR('',#239,1.);
#239 = DIRECTION('',(-1.224646799147E-16,-1.,0.));
#240 = ORIENTED_EDGE('',*,*,#241,.T.);
#241 = EDGE_CURVE('',#234,#242,#244,.T.);
#242 = VERTEX_POINT('',#243);
#243 = CARTESIAN_POINT('',(-24.91987158875,2.,0.));
#244 = LINE('',#245,#246);
#245 = CARTESIAN_POINT('',(-11.,2.,0.));
#246 = VECTOR('',#247,1.);
#247 = DIRECTION('',(1.,-1.224646799147E-16,0.));
#248 = ORIENTED_EDGE('',*,*,#249,.F.);
#249 = EDGE_CURVE('',#250,#242,#252,.T.);
#250 = VERTEX_POINT('',#251);
#251 = CARTESIAN_POINT('',(-24.6201938253,4.341204441673,0.));
#252 = CIRCLE('',#253,25.);
#253 = AXIS2_PLACEMENT_3D('',#254,#255,#256);
#254 = CARTESIAN_POINT('',(0.,0.,0.));
#255 = DIRECTION('',(0.,0.,1.));
#256 = DIRECTION('',(1.,0.,0.));
#257 = ORIENTED_EDGE('',*,*,#258,.T.);
#258 = EDGE_CURVE('',#250,#259,#261,.T.);
#259 = VERTEX_POINT('',#260);
#260 = CARTESIAN_POINT('',(-47.27077214458,8.335112528013,0.));
#261 = LINE('',#262,#263);
#262 = CARTESIAN_POINT('',(0.,0.,5.551115123126E-16));
#263 = VECTOR('',#264,1.);
#264 = DIRECTION('',(-0.984807753012,0.173648177667,0.));
#265 = ORIENTED_EDGE('',*,*,#266,.F.);
#266 = EDGE_CURVE('',#267,#259,#269,.T.);
#267 = VERTEX_POINT('',#268);
#268 = CARTESIAN_POINT('',(16.416966879632,45.105245797724,0.));
#269 = CIRCLE('',#270,48.);
#270 = AXIS2_PLACEMENT_3D('',#271,#272,#273);
#271 = CARTESIAN_POINT('',(0.,0.,0.));
#272 = DIRECTION('',(0.,-0.,1.));
#273 = DIRECTION('',(0.342020143326,0.939692620786,0.));
#274 = ORIENTED_EDGE('',*,*,#275,.F.);
#275 = EDGE_CURVE('',#276,#267,#278,.T.);
#276 = VERTEX_POINT('',#277);
#277 = CARTESIAN_POINT('',(8.550503583142,23.492315519648,0.));
#278 = LINE('',#279,#280);
#279 = CARTESIAN_POINT('',(0.,0.,0.));
#280 = VECTOR('',#281,1.);
#281 = DIRECTION('',(0.342020143326,0.939692620786,0.));
#282 = ORIENTED_EDGE('',*,*,#283,.F.);
#283 = EDGE_CURVE('',#284,#276,#286,.T.);
#284 = VERTEX_POINT('',#285);
#285 = CARTESIAN_POINT('',(10.727884986808,22.581241854907,0.));
#286 = CIRCLE('',#287,25.);
#287 = AXIS2_PLACEMENT_3D('',#288,#289,#290);
#288 = CARTESIAN_POINT('',(0.,0.,0.));
#289 = DIRECTION('',(0.,0.,1.));
#290 = DIRECTION('',(1.,0.,0.));
#291 = ORIENTED_EDGE('',*,*,#292,.F.);
#292 = EDGE_CURVE('',#293,#284,#295,.T.);
#293 = VERTEX_POINT('',#294);
#294 = CARTESIAN_POINT('',(20.767949192431,39.9711431703,0.));
#295 = LINE('',#296,#297);
#296 = CARTESIAN_POINT('',(3.767949192431,10.526279441629,0.));
#297 = VECTOR('',#298,1.);
#298 = DIRECTION('',(-0.5,-0.866025403784,0.));
#299 = ORIENTED_EDGE('',*,*,#300,.F.);
#300 = EDGE_CURVE('',#301,#293,#303,.T.);
#301 = VERTEX_POINT('',#302);
#302 = CARTESIAN_POINT('',(24.232050807569,37.9711431703,0.));
#303 = LINE('',#304,#305);
#304 = CARTESIAN_POINT('',(23.366025403784,38.4711431703,0.));
#305 = VECTOR('',#306,1.);
#306 = DIRECTION('',(-0.866025403784,0.5,0.));
#307 = ORIENTED_EDGE('',*,*,#308,.T.);
#308 = EDGE_CURVE('',#301,#116,#309,.T.);
#309 = LINE('',#310,#311);
#310 = CARTESIAN_POINT('',(7.232050807569,8.526279441629,0.));
#311 = VECTOR('',#312,1.);
#312 = DIRECTION('',(-0.5,-0.866025403784,0.));
#313 = PLANE('',#314);
#314 = AXIS2_PLACEMENT_3D('',#315,#316,#317);
#315 = CARTESIAN_POINT('',(0.,0.,0.));
#316 = DIRECTION('',(0.,0.,1.));
#317 = DIRECTION('',(1.,0.,0.));
#318 = ADVANCED_FACE('',(#319),#345,.T.);
#319 = FACE_BOUND('',#320,.T.);
#320 = EDGE_LOOP('',(#321,#329,#330,#338));
#321 = ORIENTED_EDGE('',*,*,#322,.T.);
#322 = EDGE_CURVE('',#323,#60,#325,.T.);
#323 = VERTEX_POINT('',#324);
#324 = CARTESIAN_POINT('',(47.157727308001,-28.30457127646,-3.));
#325 = LINE('',#326,#327);
#326 = CARTESIAN_POINT('',(47.157727308001,-28.30457127646,-3.));
#327 = VECTOR('',#328,1.);
#328 = DIRECTION('',(0.,0.,1.));
#329 = ORIENTED_EDGE('',*,*,#59,.F.);
#330 = ORIENTED_EDGE('',*,*,#331,.F.);
#331 = EDGE_CURVE('',#332,#51,#334,.T.);
#332 = VERTEX_POINT('',#333);
#333 = CARTESIAN_POINT('',(-47.157727308,-28.30457127646,-3.));
#334 = LINE('',#335,#336);
#335 = CARTESIAN_POINT('',(-47.157727308,-28.30457127646,-3.));
#336 = VECTOR('',#337,1.);
#337 = DIRECTION('',(0.,0.,1.));
#338 = ORIENTED_EDGE('',*,*,#339,.T.);
#339 = EDGE_CURVE('',#332,#323,#340,.T.);
#340 = CIRCLE('',#341,55.);
#341 = AXIS2_PLACEMENT_3D('',#342,#343,#344);
#342 = CARTESIAN_POINT('',(0.,0.,-3.));
#343 = DIRECTION('',(0.,0.,1.));
#344 = DIRECTION('',(1.,0.,0.));
#345 = CYLINDRICAL_SURFACE('',#346,55.);
#346 = AXIS2_PLACEMENT_3D('',#347,#348,#349);
#347 = CARTESIAN_POINT('',(0.,0.,-3.));
#348 = DIRECTION('',(0.,0.,1.));
#349 = DIRECTION('',(1.,0.,0.));
#350 = ADVANCED_FACE('',(#351),#377,.T.);
#351 = FACE_BOUND('',#352,.T.);
#352 = EDGE_LOOP('',(#353,#361,#362,#370));
#353 = ORIENTED_EDGE('',*,*,#354,.T.);
#354 = EDGE_CURVE('',#355,#33,#357,.T.);
#355 = VERTEX_POINT('',#356);
#356 = CARTESIAN_POINT('',(-48.09134142264,-26.68750419523,-3.));
#357 = LINE('',#358,#359);
#358 = CARTESIAN_POINT('',(-48.09134142264,-26.68750419523,-3.));
#359 = VECTOR('',#360,1.);
#360 = DIRECTION('',(0.,0.,1.));
#361 = ORIENTED_EDGE('',*,*,#32,.F.);
#362 = ORIENTED_EDGE('',*,*,#363,.F.);
#363 = EDGE_CURVE('',#364,#22,#366,.T.);
#364 = VERTEX_POINT('',#365);
#365 = CARTESIAN_POINT('',(-0.933614114642,54.992075471698,-3.));
#366 = LINE('',#367,#368);
#367 = CARTESIAN_POINT('',(-0.933614114642,54.992075471698,-3.));
#368 = VECTOR('',#369,1.);
#369 = DIRECTION('',(0.,0.,1.));
#370 = ORIENTED_EDGE('',*,*,#371,.T.);
#371 = EDGE_CURVE('',#364,#355,#372,.T.);
#372 = CIRCLE('',#373,55.);
#373 = AXIS2_PLACEMENT_3D('',#374,#375,#376);
#374 = CARTESIAN_POINT('',(0.,0.,-3.));
#375 = DIRECTION('',(0.,0.,1.));
#376 = DIRECTION('',(1.,0.,0.));
#377 = CYLINDRICAL_SURFACE('',#378,55.);
#378 = AXIS2_PLACEMENT_3D('',#379,#380,#381);
#379 = CARTESIAN_POINT('',(0.,0.,-3.));
#380 = DIRECTION('',(0.,0.,1.));
#381 = DIRECTION('',(1.,0.,0.));
#382 = ADVANCED_FACE('',(#383),#409,.F.);
#383 = FACE_BOUND('',#384,.F.);
#384 = EDGE_LOOP('',(#385,#393,#394,#402));
#385 = ORIENTED_EDGE('',*,*,#386,.T.);
#386 = EDGE_CURVE('',#387,#192,#389,.T.);
#387 = VERTEX_POINT('',#388);
#388 = CARTESIAN_POINT('',(16.416966879632,-45.10524579772,-3.));
#389 = LINE('',#390,#391);
#390 = CARTESIAN_POINT('',(16.416966879632,-45.10524579772,-5.));
#391 = VECTOR('',#392,1.);
#392 = DIRECTION('',(0.,0.,1.));
#393 = ORIENTED_EDGE('',*,*,#199,.F.);
#394 = ORIENTED_EDGE('',*,*,#395,.F.);
#395 = EDGE_CURVE('',#396,#200,#398,.T.);
#396 = VERTEX_POINT('',#397);
#397 = CARTESIAN_POINT('',(-47.27077214458,-8.335112528013,-3.));
#398 = LINE('',#399,#400);
#399 = CARTESIAN_POINT('',(-47.27077214458,-8.335112528013,-5.));
#400 = VECTOR('',#401,1.);
#401 = DIRECTION('',(0.,0.,1.));
#402 = ORIENTED_EDGE('',*,*,#403,.T.);
#403 = EDGE_CURVE('',#396,#387,#404,.T.);
#404 = CIRCLE('',#405,48.);
#405 = AXIS2_PLACEMENT_3D('',#406,#407,#408);
#406 = CARTESIAN_POINT('',(0.,0.,-3.));
#407 = DIRECTION('',(0.,0.,1.));
#408 = DIRECTION('',(-0.984807753012,-0.173648177667,0.));
#409 = CYLINDRICAL_SURFACE('',#410,48.);
#410 = AXIS2_PLACEMENT_3D('',#411,#412,#413);
#411 = CARTESIAN_POINT('',(0.,0.,-5.));
#412 = DIRECTION('',(0.,0.,1.));
#413 = DIRECTION('',(-0.984807753012,-0.173648177667,0.));
#414 = ADVANCED_FACE('',(#415),#441,.F.);
#415 = FACE_BOUND('',#416,.F.);
#416 = EDGE_LOOP('',(#417,#427,#433,#434,#435));
#417 = ORIENTED_EDGE('',*,*,#418,.F.);
#418 = EDGE_CURVE('',#419,#421,#423,.T.);
#419 = VERTEX_POINT('',#420);
#420 = CARTESIAN_POINT('',(-21.66577056626,-3.820259908672,-3.));
#421 = VERTEX_POINT('',#422);
#422 = CARTESIAN_POINT('',(-21.66577056626,-3.820259908672,2.4));
#423 = LINE('',#424,#425);
#424 = CARTESIAN_POINT('',(-21.66577056626,-3.820259908672,-7.));
#425 = VECTOR('',#426,1.);
#426 = DIRECTION('',(0.,0.,1.));
#427 = ORIENTED_EDGE('',*,*,#428,.T.);
#428 = EDGE_CURVE('',#419,#396,#429,.T.);
#429 = LINE('',#430,#431);
#430 = CARTESIAN_POINT('',(0.,0.,-3.));
#431 = VECTOR('',#432,1.);
#432 = DIRECTION('',(-0.984807753012,-0.173648177667,0.));
#433 = ORIENTED_EDGE('',*,*,#395,.T.);
#434 = ORIENTED_EDGE('',*,*,#208,.F.);
#435 = ORIENTED_EDGE('',*,*,#436,.F.);
#436 = EDGE_CURVE('',#421,#209,#437,.T.);
#437 = LINE('',#438,#439);
#438 = CARTESIAN_POINT('',(0.,0.,20.));
#439 = VECTOR('',#440,1.);
#440 = DIRECTION('',(-0.769005657625,-0.135596445757,-0.624695047554));
#441 = PLANE('',#442);
#442 = AXIS2_PLACEMENT_3D('',#443,#444,#445);
#443 = CARTESIAN_POINT('',(0.,0.,-5.));
#444 = DIRECTION('',(-0.173648177667,0.984807753012,0.));
#445 = DIRECTION('',(-0.984807753012,-0.173648177667,0.));
#446 = ADVANCED_FACE('',(#447),#473,.T.);
#447 = FACE_BOUND('',#448,.T.);
#448 = EDGE_LOOP('',(#449,#457,#465,#471,#472));
#449 = ORIENTED_EDGE('',*,*,#450,.F.);
#450 = EDGE_CURVE('',#451,#183,#453,.T.);
#451 = VERTEX_POINT('',#452);
#452 = CARTESIAN_POINT('',(7.524443153165,-20.67323765729,2.4));
#453 = LINE('',#454,#455);
#454 = CARTESIAN_POINT('',(0.,0.,20.));
#455 = VECTOR('',#456,1.);
#456 = DIRECTION('',(0.267072862124,-0.733776658035,-0.624695047554));
#457 = ORIENTED_EDGE('',*,*,#458,.F.);
#458 = EDGE_CURVE('',#459,#451,#461,.T.);
#459 = VERTEX_POINT('',#460);
#460 = CARTESIAN_POINT('',(7.524443153165,-20.67323765729,-3.));
#461 = LINE('',#462,#463);
#462 = CARTESIAN_POINT('',(7.524443153165,-20.67323765729,-7.));
#463 = VECTOR('',#464,1.);
#464 = DIRECTION('',(0.,0.,1.));
#465 = ORIENTED_EDGE('',*,*,#466,.T.);
#466 = EDGE_CURVE('',#459,#387,#467,.T.);
#467 = LINE('',#468,#469);
#468 = CARTESIAN_POINT('',(0.,0.,-3.));
#469 = VECTOR('',#470,1.);
#470 = DIRECTION('',(0.342020143326,-0.939692620786,0.));
#471 = ORIENTED_EDGE('',*,*,#386,.T.);
#472 = ORIENTED_EDGE('',*,*,#191,.F.);
#473 = PLANE('',#474);
#474 = AXIS2_PLACEMENT_3D('',#475,#476,#477);
#475 = CARTESIAN_POINT('',(0.,0.,-5.));
#476 = DIRECTION('',(-0.939692620786,-0.342020143326,0.));
#477 = DIRECTION('',(0.342020143326,-0.939692620786,0.));
#478 = ADVANCED_FACE('',(#479),#497,.T.);
#479 = FACE_BOUND('',#480,.T.);
#480 = EDGE_LOOP('',(#481,#488,#489,#496));
#481 = ORIENTED_EDGE('',*,*,#482,.F.);
#482 = EDGE_CURVE('',#421,#451,#483,.T.);
#483 = CIRCLE('',#484,22.);
#484 = AXIS2_PLACEMENT_3D('',#485,#486,#487);
#485 = CARTESIAN_POINT('',(0.,0.,2.4));
#486 = DIRECTION('',(-0.,0.,1.));
#487 = DIRECTION('',(0.,-1.,0.));
#488 = ORIENTED_EDGE('',*,*,#418,.F.);
#489 = ORIENTED_EDGE('',*,*,#490,.T.);
#490 = EDGE_CURVE('',#419,#459,#491,.T.);
#491 = CIRCLE('',#492,22.);
#492 = AXIS2_PLACEMENT_3D('',#493,#494,#495);
#493 = CARTESIAN_POINT('',(0.,0.,-3.));
#494 = DIRECTION('',(0.,0.,1.));
#495 = DIRECTION('',(-0.984807753012,-0.173648177667,0.));
#496 = ORIENTED_EDGE('',*,*,#458,.T.);
#497 = CYLINDRICAL_SURFACE('',#498,22.);
#498 = AXIS2_PLACEMENT_3D('',#499,#500,#501);
#499 = CARTESIAN_POINT('',(0.,0.,-7.));
#500 = DIRECTION('',(0.,0.,1.));
#501 = DIRECTION('',(-0.984807753012,-0.173648177667,0.));
#502 = ADVANCED_FACE('',(#503),#529,.F.);
#503 = FACE_BOUND('',#504,.F.);
#504 = EDGE_LOOP('',(#505,#513,#514,#522));
#505 = ORIENTED_EDGE('',*,*,#506,.T.);
#506 = EDGE_CURVE('',#507,#259,#509,.T.);
#507 = VERTEX_POINT('',#508);
#508 = CARTESIAN_POINT('',(-47.27077214458,8.335112528013,-3.));
#509 = LINE('',#510,#511);
#510 = CARTESIAN_POINT('',(-47.27077214458,8.335112528013,-5.));
#511 = VECTOR('',#512,1.);
#512 = DIRECTION('',(0.,0.,1.));
#513 = ORIENTED_EDGE('',*,*,#266,.F.);
#514 = ORIENTED_EDGE('',*,*,#515,.F.);
#515 = EDGE_CURVE('',#516,#267,#518,.T.);
#516 = VERTEX_POINT('',#517);
#517 = CARTESIAN_POINT('',(16.416966879632,45.105245797724,-3.));
#518 = LINE('',#519,#520);
#519 = CARTESIAN_POINT('',(16.416966879632,45.105245797724,-5.));
#520 = VECTOR('',#521,1.);
#521 = DIRECTION('',(0.,0.,1.));
#522 = ORIENTED_EDGE('',*,*,#523,.T.);
#523 = EDGE_CURVE('',#516,#507,#524,.T.);
#524 = CIRCLE('',#525,48.);
#525 = AXIS2_PLACEMENT_3D('',#526,#527,#528);
#526 = CARTESIAN_POINT('',(0.,0.,-3.));
#527 = DIRECTION('',(0.,-0.,1.));
#528 = DIRECTION('',(0.342020143326,0.939692620786,0.));
#529 = CYLINDRICAL_SURFACE('',#530,48.);
#530 = AXIS2_PLACEMENT_3D('',#531,#532,#533);
#531 = CARTESIAN_POINT('',(0.,0.,-5.));
#532 = DIRECTION('',(0.,0.,1.));
#533 = DIRECTION('',(0.342020143326,0.939692620786,0.));
#534 = ADVANCED_FACE('',(#535),#561,.F.);
#535 = FACE_BOUND('',#536,.F.);
#536 = EDGE_LOOP('',(#537,#547,#553,#554,#555));
#537 = ORIENTED_EDGE('',*,*,#538,.F.);
#538 = EDGE_CURVE('',#539,#541,#543,.T.);
#539 = VERTEX_POINT('',#540);
#540 = CARTESIAN_POINT('',(7.524443153165,20.67323765729,-3.));
#541 = VERTEX_POINT('',#542);
#542 = CARTESIAN_POINT('',(7.524443153165,20.67323765729,2.4));
#543 = LINE('',#544,#545);
#544 = CARTESIAN_POINT('',(7.524443153165,20.67323765729,-7.));
#545 = VECTOR('',#546,1.);
#546 = DIRECTION('',(0.,0.,1.));
#547 = ORIENTED_EDGE('',*,*,#548,.T.);
#548 = EDGE_CURVE('',#539,#516,#549,.T.);
#549 = LINE('',#550,#551);
#550 = CARTESIAN_POINT('',(0.,0.,-3.));
#551 = VECTOR('',#552,1.);
#552 = DIRECTION('',(0.342020143326,0.939692620786,0.));
#553 = ORIENTED_EDGE('',*,*,#515,.T.);
#554 = ORIENTED_EDGE('',*,*,#275,.F.);
#555 = ORIENTED_EDGE('',*,*,#556,.F.);
#556 = EDGE_CURVE('',#541,#276,#557,.T.);
#557 = LINE('',#558,#559);
#558 = CARTESIAN_POINT('',(0.,0.,20.));
#559 = VECTOR('',#560,1.);
#560 = DIRECTION('',(0.267072862124,0.733776658035,-0.624695047554));
#561 = PLANE('',#562);
#562 = AXIS2_PLACEMENT_3D('',#563,#564,#565);
#563 = CARTESIAN_POINT('',(0.,0.,-5.));
#564 = DIRECTION('',(0.939692620786,-0.342020143326,0.));
#565 = DIRECTION('',(0.342020143326,0.939692620786,0.));
#566 = ADVANCED_FACE('',(#567),#593,.T.);
#567 = FACE_BOUND('',#568,.T.);
#568 = EDGE_LOOP('',(#569,#577,#585,#591,#592));
#569 = ORIENTED_EDGE('',*,*,#570,.F.);
#570 = EDGE_CURVE('',#571,#250,#573,.T.);
#571 = VERTEX_POINT('',#572);
#572 = CARTESIAN_POINT('',(-21.66577056626,3.820259908672,2.4));
#573 = LINE('',#574,#575);
#574 = CARTESIAN_POINT('',(0.,0.,20.));
#575 = VECTOR('',#576,1.);
#576 = DIRECTION('',(-0.769005657625,0.135596445757,-0.624695047554));
#577 = ORIENTED_EDGE('',*,*,#578,.F.);
#578 = EDGE_CURVE('',#579,#571,#581,.T.);
#579 = VERTEX_POINT('',#580);
#580 = CARTESIAN_POINT('',(-21.66577056626,3.820259908672,-3.));
#581 = LINE('',#582,#583);
#582 = CARTESIAN_POINT('',(-21.66577056626,3.820259908672,-7.));
#583 = VECTOR('',#584,1.);
#584 = DIRECTION('',(0.,0.,1.));
#585 = ORIENTED_EDGE('',*,*,#586,.T.);
#586 = EDGE_CURVE('',#579,#507,#587,.T.);
#587 = LINE('',#588,#589);
#588 = CARTESIAN_POINT('',(0.,0.,-3.));
#589 = VECTOR('',#590,1.);
#590 = DIRECTION('',(-0.984807753012,0.173648177667,0.));
#591 = ORIENTED_EDGE('',*,*,#506,.T.);
#592 = ORIENTED_EDGE('',*,*,#258,.F.);
#593 = PLANE('',#594);
#594 = AXIS2_PLACEMENT_3D('',#595,#596,#597);
#595 = CARTESIAN_POINT('',(0.,0.,-5.));
#596 = DIRECTION('',(0.173648177667,0.984807753012,0.));
#597 = DIRECTION('',(-0.984807753012,0.173648177667,0.));
#598 = ADVANCED_FACE('',(#599),#617,.T.);
#599 = FACE_BOUND('',#600,.T.);
#600 = EDGE_LOOP('',(#601,#608,#609,#616));
#601 = ORIENTED_EDGE('',*,*,#602,.F.);
#602 = EDGE_CURVE('',#541,#571,#603,.T.);
#603 = CIRCLE('',#604,22.);
#604 = AXIS2_PLACEMENT_3D('',#605,#606,#607);
#605 = CARTESIAN_POINT('',(0.,0.,2.4));
#606 = DIRECTION('',(-0.,0.,1.));
#607 = DIRECTION('',(0.,-1.,0.));
#608 = ORIENTED_EDGE('',*,*,#538,.F.);
#609 = ORIENTED_EDGE('',*,*,#610,.T.);
#610 = EDGE_CURVE('',#539,#579,#611,.T.);
#611 = CIRCLE('',#612,22.);
#612 = AXIS2_PLACEMENT_3D('',#613,#614,#615);
#613 = CARTESIAN_POINT('',(0.,0.,-3.));
#614 = DIRECTION('',(0.,-0.,1.));
#615 = DIRECTION('',(0.342020143326,0.939692620786,0.));
#616 = ORIENTED_EDGE('',*,*,#578,.T.);
#617 = CYLINDRICAL_SURFACE('',#618,22.);
#618 = AXIS2_PLACEMENT_3D('',#619,#620,#621);
#619 = CARTESIAN_POINT('',(0.,0.,-7.));
#620 = DIRECTION('',(0.,0.,1.));
#621 = DIRECTION('',(0.342020143326,0.939692620786,0.));
#622 = ADVANCED_FACE('',(#623),#649,.F.);
#623 = FACE_BOUND('',#624,.F.);
#624 = EDGE_LOOP('',(#625,#633,#634,#642));
#625 = ORIENTED_EDGE('',*,*,#626,.T.);
#626 = EDGE_CURVE('',#627,#125,#629,.T.);
#627 = VERTEX_POINT('',#628);
#628 = CARTESIAN_POINT('',(30.853805264954,36.770133269711,-3.));
#629 = LINE('',#630,#631);
#630 = CARTESIAN_POINT('',(30.853805264954,36.770133269711,-5.));
#631 = VECTOR('',#632,1.);
#632 = DIRECTION('',(0.,0.,1.));
#633 = ORIENTED_EDGE('',*,*,#132,.F.);
#634 = ORIENTED_EDGE('',*,*,#635,.F.);
#635 = EDGE_CURVE('',#636,#133,#638,.T.);
#636 = VERTEX_POINT('',#637);
#637 = CARTESIAN_POINT('',(30.853805264954,-36.77013326971,-3.));
#638 = LINE('',#639,#640);
#639 = CARTESIAN_POINT('',(30.853805264954,-36.77013326971,-5.));
#640 = VECTOR('',#641,1.);
#641 = DIRECTION('',(0.,0.,1.));
#642 = ORIENTED_EDGE('',*,*,#643,.T.);
#643 = EDGE_CURVE('',#636,#627,#644,.T.);
#644 = CIRCLE('',#645,48.);
#645 = AXIS2_PLACEMENT_3D('',#646,#647,#648);
#646 = CARTESIAN_POINT('',(0.,0.,-3.));
#647 = DIRECTION('',(-0.,0.,1.));
#648 = DIRECTION('',(0.642787609687,-0.766044443119,0.));
#649 = CYLINDRICAL_SURFACE('',#650,48.);
#650 = AXIS2_PLACEMENT_3D('',#651,#652,#653);
#651 = CARTESIAN_POINT('',(0.,0.,-5.));
#652 = DIRECTION('',(0.,0.,1.));
#653 = DIRECTION('',(0.642787609687,-0.766044443119,0.));
#654 = ADVANCED_FACE('',(#655),#681,.F.);
#655 = FACE_BOUND('',#656,.F.);
#656 = EDGE_LOOP('',(#657,#667,#673,#674,#675));
#657 = ORIENTED_EDGE('',*,*,#658,.F.);
#658 = EDGE_CURVE('',#659,#661,#663,.T.);
#659 = VERTEX_POINT('',#660);
#660 = CARTESIAN_POINT('',(14.141327413104,-16.85297774861,-3.));
#661 = VERTEX_POINT('',#662);
#662 = CARTESIAN_POINT('',(14.141327413104,-16.85297774861,2.4));
#663 = LINE('',#664,#665);
#664 = CARTESIAN_POINT('',(14.141327413104,-16.85297774861,-7.));
#665 = VECTOR('',#666,1.);
#666 = DIRECTION('',(0.,0.,1.));
#667 = ORIENTED_EDGE('',*,*,#668,.T.);
#668 = EDGE_CURVE('',#659,#636,#669,.T.);
#669 = LINE('',#670,#671);
#670 = CARTESIAN_POINT('',(0.,0.,-3.));
#671 = VECTOR('',#672,1.);
#672 = DIRECTION('',(0.642787609687,-0.766044443119,0.));
#673 = ORIENTED_EDGE('',*,*,#635,.T.);
#674 = ORIENTED_EDGE('',*,*,#141,.F.);
#675 = ORIENTED_EDGE('',*,*,#676,.F.);
#676 = EDGE_CURVE('',#661,#142,#677,.T.);
#677 = LINE('',#678,#679);
#678 = CARTESIAN_POINT('',(0.,0.,20.));
#679 = VECTOR('',#680,1.);
#680 = DIRECTION('',(0.501932795501,-0.598180212279,-0.624695047554));
#681 = PLANE('',#682);
#682 = AXIS2_PLACEMENT_3D('',#683,#684,#685);
#683 = CARTESIAN_POINT('',(0.,0.,-5.));
#684 = DIRECTION('',(-0.766044443119,-0.642787609687,0.));
#685 = DIRECTION('',(0.642787609687,-0.766044443119,0.));
#686 = ADVANCED_FACE('',(#687),#713,.T.);
#687 = FACE_BOUND('',#688,.T.);
#688 = EDGE_LOOP('',(#689,#697,#705,#711,#712));
#689 = ORIENTED_EDGE('',*,*,#690,.F.);
#690 = EDGE_CURVE('',#691,#114,#693,.T.);
#691 = VERTEX_POINT('',#692);
#692 = CARTESIAN_POINT('',(14.141327413104,16.852977748618,2.4));
#693 = LINE('',#694,#695);
#694 = CARTESIAN_POINT('',(0.,0.,20.));
#695 = VECTOR('',#696,1.);
#696 = DIRECTION('',(0.501932795501,0.598180212279,-0.624695047554));
#697 = ORIENTED_EDGE('',*,*,#698,.F.);
#698 = EDGE_CURVE('',#699,#691,#701,.T.);
#699 = VERTEX_POINT('',#700);
#700 = CARTESIAN_POINT('',(14.141327413104,16.852977748618,-3.));
#701 = LINE('',#702,#703);
#702 = CARTESIAN_POINT('',(14.141327413104,16.852977748618,-7.));
#703 = VECTOR('',#704,1.);
#704 = DIRECTION('',(0.,0.,1.));
#705 = ORIENTED_EDGE('',*,*,#706,.T.);
#706 = EDGE_CURVE('',#699,#627,#707,.T.);
#707 = LINE('',#708,#709);
#708 = CARTESIAN_POINT('',(0.,0.,-3.));
#709 = VECTOR('',#710,1.);
#710 = DIRECTION('',(0.642787609687,0.766044443119,0.));
#711 = ORIENTED_EDGE('',*,*,#626,.T.);
#712 = ORIENTED_EDGE('',*,*,#124,.F.);
#713 = PLANE('',#714);
#714 = AXIS2_PLACEMENT_3D('',#715,#716,#717);
#715 = CARTESIAN_POINT('',(0.,0.,-5.));
#716 = DIRECTION('',(0.766044443119,-0.642787609687,0.));
#717 = DIRECTION('',(0.642787609687,0.766044443119,0.));
#718 = ADVANCED_FACE('',(#719),#746,.T.);
#719 = FACE_BOUND('',#720,.T.);
#720 = EDGE_LOOP('',(#721,#730,#731,#738,#739));
#721 = ORIENTED_EDGE('',*,*,#722,.F.);
#722 = EDGE_CURVE('',#661,#723,#725,.T.);
#723 = VERTEX_POINT('',#724);
#724 = CARTESIAN_POINT('',(22.,-5.388445916248E-15,2.4));
#725 = CIRCLE('',#726,22.);
#726 = AXIS2_PLACEMENT_3D('',#727,#728,#729);
#727 = CARTESIAN_POINT('',(0.,0.,2.4));
#728 = DIRECTION('',(-0.,0.,1.));
#729 = DIRECTION('',(0.,-1.,0.));
#730 = ORIENTED_EDGE('',*,*,#658,.F.);
#731 = ORIENTED_EDGE('',*,*,#732,.T.);
#732 = EDGE_CURVE('',#659,#699,#733,.T.);
#733 = CIRCLE('',#734,22.);
#734 = AXIS2_PLACEMENT_3D('',#735,#736,#737);
#735 = CARTESIAN_POINT('',(0.,0.,-3.));
#736 = DIRECTION('',(-0.,0.,1.));
#737 = DIRECTION('',(0.642787609687,-0.766044443119,0.));
#738 = ORIENTED_EDGE('',*,*,#698,.T.);
#739 = ORIENTED_EDGE('',*,*,#740,.F.);
#740 = EDGE_CURVE('',#723,#691,#741,.T.);
#741 = CIRCLE('',#742,22.);
#742 = AXIS2_PLACEMENT_3D('',#743,#744,#745);
#743 = CARTESIAN_POINT('',(0.,0.,2.4));
#744 = DIRECTION('',(-0.,0.,1.));
#745 = DIRECTION('',(0.,-1.,0.));
#746 = CYLINDRICAL_SURFACE('',#747,22.);
#747 = AXIS2_PLACEMENT_3D('',#748,#749,#750);
#748 = CARTESIAN_POINT('',(0.,0.,-7.));
#749 = DIRECTION('',(0.,0.,1.));
#750 = DIRECTION('',(0.642787609687,-0.766044443119,0.));
#751 = ADVANCED_FACE('',(#752),#861,.T.);
#752 = FACE_BOUND('',#753,.T.);
#753 = EDGE_LOOP('',(#754,#763,#764,#765,#766,#767,#768,#777,#786,#793,
    #794,#795,#796,#804,#811,#812,#813,#814,#815,#824,#833,#840,#841,
    #842,#843,#844,#845,#854));
#754 = ORIENTED_EDGE('',*,*,#755,.F.);
#755 = EDGE_CURVE('',#217,#756,#758,.T.);
#756 = VERTEX_POINT('',#757);
#757 = CARTESIAN_POINT('',(-22.,-2.,2.3274223725));
#758 = HYPERBOLA('',#759,1.6,2.);
#759 = AXIS2_PLACEMENT_3D('',#760,#761,#762);
#760 = CARTESIAN_POINT('',(-2.449293598295E-16,-2.,20.));
#761 = DIRECTION('',(-1.224646799147E-16,-1.,-0.));
#762 = DIRECTION('',(0.,0.,-1.));
#763 = ORIENTED_EDGE('',*,*,#216,.T.);
#764 = ORIENTED_EDGE('',*,*,#436,.F.);
#765 = ORIENTED_EDGE('',*,*,#482,.T.);
#766 = ORIENTED_EDGE('',*,*,#450,.T.);
#767 = ORIENTED_EDGE('',*,*,#182,.T.);
#768 = ORIENTED_EDGE('',*,*,#769,.T.);
#769 = EDGE_CURVE('',#175,#770,#772,.T.);
#770 = VERTEX_POINT('',#771);
#771 = CARTESIAN_POINT('',(9.267949192431,-20.05255888325,2.3274223725)
  );
#772 = HYPERBOLA('',#773,1.6,2.);
#773 = AXIS2_PLACEMENT_3D('',#774,#775,#776);
#774 = CARTESIAN_POINT('',(-1.732050807569,-1.,20.));
#775 = DIRECTION('',(0.866025403784,0.5,0.));
#776 = DIRECTION('',(0.,0.,-1.));
#777 = ORIENTED_EDGE('',*,*,#778,.T.);
#778 = EDGE_CURVE('',#770,#779,#781,.T.);
#779 = VERTEX_POINT('',#780);
#780 = CARTESIAN_POINT('',(12.732050807569,-18.05255888325,2.3274223725)
  );
#781 = HYPERBOLA('',#782,17.6,22.);
#782 = AXIS2_PLACEMENT_3D('',#783,#784,#785);
#783 = CARTESIAN_POINT('',(11.,-19.05255888325,20.));
#784 = DIRECTION('',(0.5,-0.866025403784,0.));
#785 = DIRECTION('',(0.,0.,-1.));
#786 = ORIENTED_EDGE('',*,*,#787,.F.);
#787 = EDGE_CURVE('',#150,#779,#788,.T.);
#788 = HYPERBOLA('',#789,1.6,2.);
#789 = AXIS2_PLACEMENT_3D('',#790,#791,#792);
#790 = CARTESIAN_POINT('',(1.732050807569,1.,20.));
#791 = DIRECTION('',(0.866025403784,0.5,0.));
#792 = DIRECTION('',(0.,0.,-1.));
#793 = ORIENTED_EDGE('',*,*,#149,.T.);
#794 = ORIENTED_EDGE('',*,*,#676,.F.);
#795 = ORIENTED_EDGE('',*,*,#722,.T.);
#796 = ORIENTED_EDGE('',*,*,#797,.T.);
#797 = EDGE_CURVE('',#723,#798,#800,.T.);
#798 = VERTEX_POINT('',#799);
#799 = CARTESIAN_POINT('',(20.,-4.898587196589E-15,4.));
#800 = LINE('',#801,#802);
#801 = CARTESIAN_POINT('',(25.,-6.123233995737E-15,0.));
#802 = VECTOR('',#803,1.);
#803 = DIRECTION('',(-0.780868809443,1.912576976077E-16,0.624695047554)
  );
#804 = ORIENTED_EDGE('',*,*,#805,.F.);
#805 = EDGE_CURVE('',#798,#798,#806,.T.);
#806 = CIRCLE('',#807,20.);
#807 = AXIS2_PLACEMENT_3D('',#808,#809,#810);
#808 = CARTESIAN_POINT('',(0.,0.,4.));
#809 = DIRECTION('',(0.,0.,1.));
#810 = DIRECTION('',(1.,0.,0.));
#811 = ORIENTED_EDGE('',*,*,#797,.F.);
#812 = ORIENTED_EDGE('',*,*,#740,.T.);
#813 = ORIENTED_EDGE('',*,*,#690,.T.);
#814 = ORIENTED_EDGE('',*,*,#113,.T.);
#815 = ORIENTED_EDGE('',*,*,#816,.T.);
#816 = EDGE_CURVE('',#116,#817,#819,.T.);
#817 = VERTEX_POINT('',#818);
#818 = CARTESIAN_POINT('',(12.732050807569,18.052558883258,2.3274223725)
  );
#819 = HYPERBOLA('',#820,1.6,2.);
#820 = AXIS2_PLACEMENT_3D('',#821,#822,#823);
#821 = CARTESIAN_POINT('',(1.732050807569,-1.,20.));
#822 = DIRECTION('',(-0.866025403784,0.5,0.));
#823 = DIRECTION('',(0.,0.,-1.));
#824 = ORIENTED_EDGE('',*,*,#825,.T.);
#825 = EDGE_CURVE('',#817,#826,#828,.T.);
#826 = VERTEX_POINT('',#827);
#827 = CARTESIAN_POINT('',(9.267949192431,20.052558883258,2.3274223725)
  );
#828 = HYPERBOLA('',#829,17.6,22.);
#829 = AXIS2_PLACEMENT_3D('',#830,#831,#832);
#830 = CARTESIAN_POINT('',(11.,19.052558883258,20.));
#831 = DIRECTION('',(0.5,0.866025403784,0.));
#832 = DIRECTION('',(0.,0.,-1.));
#833 = ORIENTED_EDGE('',*,*,#834,.F.);
#834 = EDGE_CURVE('',#284,#826,#835,.T.);
#835 = HYPERBOLA('',#836,1.6,2.);
#836 = AXIS2_PLACEMENT_3D('',#837,#838,#839);
#837 = CARTESIAN_POINT('',(-1.732050807569,1.,20.));
#838 = DIRECTION('',(-0.866025403784,0.5,0.));
#839 = DIRECTION('',(0.,0.,-1.));
#840 = ORIENTED_EDGE('',*,*,#283,.T.);
#841 = ORIENTED_EDGE('',*,*,#556,.F.);
#842 = ORIENTED_EDGE('',*,*,#602,.T.);
#843 = ORIENTED_EDGE('',*,*,#570,.T.);
#844 = ORIENTED_EDGE('',*,*,#249,.T.);
#845 = ORIENTED_EDGE('',*,*,#846,.T.);
#846 = EDGE_CURVE('',#242,#847,#849,.T.);
#847 = VERTEX_POINT('',#848);
#848 = CARTESIAN_POINT('',(-22.,2.,2.3274223725));
#849 = HYPERBOLA('',#850,1.6,2.);
#850 = AXIS2_PLACEMENT_3D('',#851,#852,#853);
#851 = CARTESIAN_POINT('',(2.449293598295E-16,2.,20.));
#852 = DIRECTION('',(-1.224646799147E-16,-1.,-0.));
#853 = DIRECTION('',(0.,0.,-1.));
#854 = ORIENTED_EDGE('',*,*,#855,.T.);
#855 = EDGE_CURVE('',#847,#756,#856,.T.);
#856 = HYPERBOLA('',#857,17.6,22.);
#857 = AXIS2_PLACEMENT_3D('',#858,#859,#860);
#858 = CARTESIAN_POINT('',(-22.,2.694222958124E-15,20.));
#859 = DIRECTION('',(-1.,1.224646799147E-16,0.));
#860 = DIRECTION('',(0.,0.,-1.));
#861 = CONICAL_SURFACE('',#862,25.,0.896055384571);
#862 = AXIS2_PLACEMENT_3D('',#863,#864,#865);
#863 = CARTESIAN_POINT('',(0.,0.,0.));
#864 = DIRECTION('',(-0.,-0.,-1.));
#865 = DIRECTION('',(1.,0.,0.));
#866 = ADVANCED_FACE('',(#867),#893,.F.);
#867 = FACE_BOUND('',#868,.F.);
#868 = EDGE_LOOP('',(#869,#870,#878,#886,#892));
#869 = ORIENTED_EDGE('',*,*,#816,.T.);
#870 = ORIENTED_EDGE('',*,*,#871,.T.);
#871 = EDGE_CURVE('',#817,#872,#874,.T.);
#872 = VERTEX_POINT('',#873);
#873 = CARTESIAN_POINT('',(12.732050807569,18.052558883258,3.));
#874 = LINE('',#875,#876);
#875 = CARTESIAN_POINT('',(12.732050807569,18.052558883258,-3.));
#876 = VECTOR('',#877,1.);
#877 = DIRECTION('',(0.,0.,1.));
#878 = ORIENTED_EDGE('',*,*,#879,.T.);
#879 = EDGE_CURVE('',#872,#880,#882,.T.);
#880 = VERTEX_POINT('',#881);
#881 = CARTESIAN_POINT('',(24.232050807569,37.9711431703,3.));
#882 = LINE('',#883,#884);
#883 = CARTESIAN_POINT('',(12.732050807569,18.052558883258,3.));
#884 = VECTOR('',#885,1.);
#885 = DIRECTION('',(0.5,0.866025403784,0.));
#886 = ORIENTED_EDGE('',*,*,#887,.F.);
#887 = EDGE_CURVE('',#301,#880,#888,.T.);
#888 = LINE('',#889,#890);
#889 = CARTESIAN_POINT('',(24.232050807569,37.9711431703,-3.));
#890 = VECTOR('',#891,1.);
#891 = DIRECTION('',(0.,0.,1.));
#892 = ORIENTED_EDGE('',*,*,#308,.T.);
#893 = PLANE('',#894);
#894 = AXIS2_PLACEMENT_3D('',#895,#896,#897);
#895 = CARTESIAN_POINT('',(12.732050807569,18.052558883258,-3.));
#896 = DIRECTION('',(-0.866025403784,0.5,0.));
#897 = DIRECTION('',(0.,0.,1.));
#898 = ADVANCED_FACE('',(#899),#917,.T.);
#899 = FACE_BOUND('',#900,.T.);
#900 = EDGE_LOOP('',(#901,#902,#903,#911));
#901 = ORIENTED_EDGE('',*,*,#887,.F.);
#902 = ORIENTED_EDGE('',*,*,#300,.T.);
#903 = ORIENTED_EDGE('',*,*,#904,.T.);
#904 = EDGE_CURVE('',#293,#905,#907,.T.);
#905 = VERTEX_POINT('',#906);
#906 = CARTESIAN_POINT('',(20.767949192431,39.9711431703,3.));
#907 = LINE('',#908,#909);
#908 = CARTESIAN_POINT('',(20.767949192431,39.9711431703,-3.));
#909 = VECTOR('',#910,1.);
#910 = DIRECTION('',(0.,0.,1.));
#911 = ORIENTED_EDGE('',*,*,#912,.F.);
#912 = EDGE_CURVE('',#880,#905,#913,.T.);
#913 = LINE('',#914,#915);
#914 = CARTESIAN_POINT('',(24.232050807569,37.9711431703,3.));
#915 = VECTOR('',#916,1.);
#916 = DIRECTION('',(-0.866025403784,0.5,0.));
#917 = PLANE('',#918);
#918 = AXIS2_PLACEMENT_3D('',#919,#920,#921);
#919 = CARTESIAN_POINT('',(24.232050807569,37.9711431703,-3.));
#920 = DIRECTION('',(0.5,0.866025403784,0.));
#921 = DIRECTION('',(0.,0.,1.));
#922 = ADVANCED_FACE('',(#923),#942,.T.);
#923 = FACE_BOUND('',#924,.T.);
#924 = EDGE_LOOP('',(#925,#926,#934,#940,#941));
#925 = ORIENTED_EDGE('',*,*,#834,.T.);
#926 = ORIENTED_EDGE('',*,*,#927,.T.);
#927 = EDGE_CURVE('',#826,#928,#930,.T.);
#928 = VERTEX_POINT('',#929);
#929 = CARTESIAN_POINT('',(9.267949192431,20.052558883258,3.));
#930 = LINE('',#931,#932);
#931 = CARTESIAN_POINT('',(9.267949192431,20.052558883258,-3.));
#932 = VECTOR('',#933,1.);
#933 = DIRECTION('',(0.,0.,1.));
#934 = ORIENTED_EDGE('',*,*,#935,.T.);
#935 = EDGE_CURVE('',#928,#905,#936,.T.);
#936 = LINE('',#937,#938);
#937 = CARTESIAN_POINT('',(9.267949192431,20.052558883258,3.));
#938 = VECTOR('',#939,1.);
#939 = DIRECTION('',(0.5,0.866025403784,0.));
#940 = ORIENTED_EDGE('',*,*,#904,.F.);
#941 = ORIENTED_EDGE('',*,*,#292,.T.);
#942 = PLANE('',#943);
#943 = AXIS2_PLACEMENT_3D('',#944,#945,#946);
#944 = CARTESIAN_POINT('',(9.267949192431,20.052558883258,-3.));
#945 = DIRECTION('',(-0.866025403784,0.5,0.));
#946 = DIRECTION('',(0.,0.,1.));
#947 = ADVANCED_FACE('',(#948),#974,.T.);
#948 = FACE_BOUND('',#949,.T.);
#949 = EDGE_LOOP('',(#950,#951,#959,#967,#973));
#950 = ORIENTED_EDGE('',*,*,#787,.T.);
#951 = ORIENTED_EDGE('',*,*,#952,.T.);
#952 = EDGE_CURVE('',#779,#953,#955,.T.);
#953 = VERTEX_POINT('',#954);
#954 = CARTESIAN_POINT('',(12.732050807569,-18.05255888325,3.));
#955 = LINE('',#956,#957);
#956 = CARTESIAN_POINT('',(12.732050807569,-18.05255888325,-3.));
#957 = VECTOR('',#958,1.);
#958 = DIRECTION('',(0.,0.,1.));
#959 = ORIENTED_EDGE('',*,*,#960,.T.);
#960 = EDGE_CURVE('',#953,#961,#963,.T.);
#961 = VERTEX_POINT('',#962);
#962 = CARTESIAN_POINT('',(24.232050807569,-37.9711431703,3.));
#963 = LINE('',#964,#965);
#964 = CARTESIAN_POINT('',(12.732050807569,-18.05255888325,3.));
#965 = VECTOR('',#966,1.);
#966 = DIRECTION('',(0.5,-0.866025403784,0.));
#967 = ORIENTED_EDGE('',*,*,#968,.F.);
#968 = EDGE_CURVE('',#159,#961,#969,.T.);
#969 = LINE('',#970,#971);
#970 = CARTESIAN_POINT('',(24.232050807569,-37.9711431703,-3.));
#971 = VECTOR('',#972,1.);
#972 = DIRECTION('',(0.,0.,1.));
#973 = ORIENTED_EDGE('',*,*,#158,.T.);
#974 = PLANE('',#975);
#975 = AXIS2_PLACEMENT_3D('',#976,#977,#978);
#976 = CARTESIAN_POINT('',(12.732050807569,-18.05255888325,-3.));
#977 = DIRECTION('',(0.866025403784,0.5,0.));
#978 = DIRECTION('',(0.,0.,1.));
#979 = ADVANCED_FACE('',(#980),#998,.T.);
#980 = FACE_BOUND('',#981,.T.);
#981 = EDGE_LOOP('',(#982,#990,#991,#992));
#982 = ORIENTED_EDGE('',*,*,#983,.F.);
#983 = EDGE_CURVE('',#167,#984,#986,.T.);
#984 = VERTEX_POINT('',#985);
#985 = CARTESIAN_POINT('',(20.767949192431,-39.9711431703,3.));
#986 = LINE('',#987,#988);
#987 = CARTESIAN_POINT('',(20.767949192431,-39.9711431703,-3.));
#988 = VECTOR('',#989,1.);
#989 = DIRECTION('',(0.,0.,1.));
#990 = ORIENTED_EDGE('',*,*,#166,.T.);
#991 = ORIENTED_EDGE('',*,*,#968,.T.);
#992 = ORIENTED_EDGE('',*,*,#993,.F.);
#993 = EDGE_CURVE('',#984,#961,#994,.T.);
#994 = LINE('',#995,#996);
#995 = CARTESIAN_POINT('',(20.767949192431,-39.9711431703,3.));
#996 = VECTOR('',#997,1.);
#997 = DIRECTION('',(0.866025403784,0.5,0.));
#998 = PLANE('',#999);
#999 = AXIS2_PLACEMENT_3D('',#1000,#1001,#1002);
#1000 = CARTESIAN_POINT('',(20.767949192431,-39.9711431703,-3.));
#1001 = DIRECTION('',(0.5,-0.866025403784,0.));
#1002 = DIRECTION('',(0.,0.,1.));
#1003 = ADVANCED_FACE('',(#1004),#1023,.F.);
#1004 = FACE_BOUND('',#1005,.F.);
#1005 = EDGE_LOOP('',(#1006,#1007,#1015,#1021,#1022));
#1006 = ORIENTED_EDGE('',*,*,#769,.T.);
#1007 = ORIENTED_EDGE('',*,*,#1008,.T.);
#1008 = EDGE_CURVE('',#770,#1009,#1011,.T.);
#1009 = VERTEX_POINT('',#1010);
#1010 = CARTESIAN_POINT('',(9.267949192431,-20.05255888325,3.));
#1011 = LINE('',#1012,#1013);
#1012 = CARTESIAN_POINT('',(9.267949192431,-20.05255888325,-3.));
#1013 = VECTOR('',#1014,1.);
#1014 = DIRECTION('',(0.,0.,1.));
#1015 = ORIENTED_EDGE('',*,*,#1016,.T.);
#1016 = EDGE_CURVE('',#1009,#984,#1017,.T.);
#1017 = LINE('',#1018,#1019);
#1018 = CARTESIAN_POINT('',(9.267949192431,-20.05255888325,3.));
#1019 = VECTOR('',#1020,1.);
#1020 = DIRECTION('',(0.5,-0.866025403784,0.));
#1021 = ORIENTED_EDGE('',*,*,#983,.F.);
#1022 = ORIENTED_EDGE('',*,*,#174,.T.);
#1023 = PLANE('',#1024);
#1024 = AXIS2_PLACEMENT_3D('',#1025,#1026,#1027);
#1025 = CARTESIAN_POINT('',(9.267949192431,-20.05255888325,-3.));
#1026 = DIRECTION('',(0.866025403784,0.5,0.));
#1027 = DIRECTION('',(0.,0.,1.));
#1028 = ADVANCED_FACE('',(#1029),#1055,.F.);
#1029 = FACE_BOUND('',#1030,.F.);
#1030 = EDGE_LOOP('',(#1031,#1032,#1040,#1048,#1054));
#1031 = ORIENTED_EDGE('',*,*,#846,.T.);
#1032 = ORIENTED_EDGE('',*,*,#1033,.T.);
#1033 = EDGE_CURVE('',#847,#1034,#1036,.T.);
#1034 = VERTEX_POINT('',#1035);
#1035 = CARTESIAN_POINT('',(-22.,2.,3.));
#1036 = LINE('',#1037,#1038);
#1037 = CARTESIAN_POINT('',(-22.,2.,-3.));
#1038 = VECTOR('',#1039,1.);
#1039 = DIRECTION('',(0.,0.,1.));
#1040 = ORIENTED_EDGE('',*,*,#1041,.T.);
#1041 = EDGE_CURVE('',#1034,#1042,#1044,.T.);
#1042 = VERTEX_POINT('',#1043);
#1043 = CARTESIAN_POINT('',(-45.,2.,3.));
#1044 = LINE('',#1045,#1046);
#1045 = CARTESIAN_POINT('',(-22.,2.,3.));
#1046 = VECTOR('',#1047,1.);
#1047 = DIRECTION('',(-1.,1.224646799147E-16,0.));
#1048 = ORIENTED_EDGE('',*,*,#1049,.F.);
#1049 = EDGE_CURVE('',#234,#1042,#1050,.T.);
#1050 = LINE('',#1051,#1052);
#1051 = CARTESIAN_POINT('',(-45.,2.,-3.));
#1052 = VECTOR('',#1053,1.);
#1053 = DIRECTION('',(0.,0.,1.));
#1054 = ORIENTED_EDGE('',*,*,#241,.T.);
#1055 = PLANE('',#1056);
#1056 = AXIS2_PLACEMENT_3D('',#1057,#1058,#1059);
#1057 = CARTESIAN_POINT('',(-22.,2.,-3.));
#1058 = DIRECTION('',(-1.224646799147E-16,-1.,0.));
#1059 = DIRECTION('',(0.,0.,1.));
#1060 = ADVANCED_FACE('',(#1061),#1079,.T.);
#1061 = FACE_BOUND('',#1062,.T.);
#1062 = EDGE_LOOP('',(#1063,#1064,#1065,#1073));
#1063 = ORIENTED_EDGE('',*,*,#1049,.F.);
#1064 = ORIENTED_EDGE('',*,*,#233,.T.);
#1065 = ORIENTED_EDGE('',*,*,#1066,.T.);
#1066 = EDGE_CURVE('',#226,#1067,#1069,.T.);
#1067 = VERTEX_POINT('',#1068);
#1068 = CARTESIAN_POINT('',(-45.,-2.,3.));
#1069 = LINE('',#1070,#1071);
#1070 = CARTESIAN_POINT('',(-45.,-2.,-3.));
#1071 = VECTOR('',#1072,1.);
#1072 = DIRECTION('',(0.,0.,1.));
#1073 = ORIENTED_EDGE('',*,*,#1074,.F.);
#1074 = EDGE_CURVE('',#1042,#1067,#1075,.T.);
#1075 = LINE('',#1076,#1077);
#1076 = CARTESIAN_POINT('',(-45.,2.,3.));
#1077 = VECTOR('',#1078,1.);
#1078 = DIRECTION('',(-1.224646799147E-16,-1.,0.));
#1079 = PLANE('',#1080);
#1080 = AXIS2_PLACEMENT_3D('',#1081,#1082,#1083);
#1081 = CARTESIAN_POINT('',(-45.,2.,-3.));
#1082 = DIRECTION('',(-1.,1.224646799147E-16,0.));
#1083 = DIRECTION('',(0.,0.,1.));
#1084 = ADVANCED_FACE('',(#1085),#1104,.T.);
#1085 = FACE_BOUND('',#1086,.T.);
#1086 = EDGE_LOOP('',(#1087,#1088,#1096,#1102,#1103));
#1087 = ORIENTED_EDGE('',*,*,#755,.T.);
#1088 = ORIENTED_EDGE('',*,*,#1089,.T.);
#1089 = EDGE_CURVE('',#756,#1090,#1092,.T.);
#1090 = VERTEX_POINT('',#1091);
#1091 = CARTESIAN_POINT('',(-22.,-2.,3.));
#1092 = LINE('',#1093,#1094);
#1093 = CARTESIAN_POINT('',(-22.,-2.,-3.));
#1094 = VECTOR('',#1095,1.);
#1095 = DIRECTION('',(0.,0.,1.));
#1096 = ORIENTED_EDGE('',*,*,#1097,.T.);
#1097 = EDGE_CURVE('',#1090,#1067,#1098,.T.);
#1098 = LINE('',#1099,#1100);
#1099 = CARTESIAN_POINT('',(-22.,-2.,3.));
#1100 = VECTOR('',#1101,1.);
#1101 = DIRECTION('',(-1.,1.224646799147E-16,0.));
#1102 = ORIENTED_EDGE('',*,*,#1066,.F.);
#1103 = ORIENTED_EDGE('',*,*,#225,.T.);
#1104 = PLANE('',#1105);
#1105 = AXIS2_PLACEMENT_3D('',#1106,#1107,#1108);
#1106 = CARTESIAN_POINT('',(-22.,-2.,-3.));
#1107 = DIRECTION('',(-1.224646799147E-16,-1.,0.));
#1108 = DIRECTION('',(0.,0.,1.));
#1109 = ADVANCED_FACE('',(#1110,#1113),#1124,.T.);
#1110 = FACE_BOUND('',#1111,.T.);
#1111 = EDGE_LOOP('',(#1112));
#1112 = ORIENTED_EDGE('',*,*,#805,.T.);
#1113 = FACE_BOUND('',#1114,.T.);
#1114 = EDGE_LOOP('',(#1115));
#1115 = ORIENTED_EDGE('',*,*,#1116,.F.);
#1116 = EDGE_CURVE('',#1117,#1117,#1119,.T.);
#1117 = VERTEX_POINT('',#1118);
#1118 = CARTESIAN_POINT('',(12.7,-3.110602869834E-15,4.));
#1119 = CIRCLE('',#1120,12.7);
#1120 = AXIS2_PLACEMENT_3D('',#1121,#1122,#1123);
#1121 = CARTESIAN_POINT('',(0.,0.,4.));
#1122 = DIRECTION('',(0.,0.,1.));
#1123 = DIRECTION('',(1.,0.,0.));
#1124 = PLANE('',#1125);
#1125 = AXIS2_PLACEMENT_3D('',#1126,#1127,#1128);
#1126 = CARTESIAN_POINT('',(0.,0.,4.));
#1127 = DIRECTION('',(0.,0.,1.));
#1128 = DIRECTION('',(1.,0.,0.));
#1129 = ADVANCED_FACE('',(#1130),#1149,.F.);
#1130 = FACE_BOUND('',#1131,.F.);
#1131 = EDGE_LOOP('',(#1132,#1133,#1141,#1148));
#1132 = ORIENTED_EDGE('',*,*,#1116,.F.);
#1133 = ORIENTED_EDGE('',*,*,#1134,.F.);
#1134 = EDGE_CURVE('',#1135,#1117,#1137,.T.);
#1135 = VERTEX_POINT('',#1136);
#1136 = CARTESIAN_POINT('',(12.7,-3.110602869834E-15,-3.));
#1137 = LINE('',#1138,#1139);
#1138 = CARTESIAN_POINT('',(12.7,-3.110602869834E-15,-7.));
#1139 = VECTOR('',#1140,1.);
#1140 = DIRECTION('',(0.,0.,1.));
#1141 = ORIENTED_EDGE('',*,*,#1142,.T.);
#1142 = EDGE_CURVE('',#1135,#1135,#1143,.T.);
#1143 = CIRCLE('',#1144,12.7);
#1144 = AXIS2_PLACEMENT_3D('',#1145,#1146,#1147);
#1145 = CARTESIAN_POINT('',(0.,0.,-3.));
#1146 = DIRECTION('',(0.,0.,1.));
#1147 = DIRECTION('',(1.,0.,0.));
#1148 = ORIENTED_EDGE('',*,*,#1134,.T.);
#1149 = CYLINDRICAL_SURFACE('',#1150,12.7);
#1150 = AXIS2_PLACEMENT_3D('',#1151,#1152,#1153);
#1151 = CARTESIAN_POINT('',(0.,0.,-7.));
#1152 = DIRECTION('',(0.,0.,1.));
#1153 = DIRECTION('',(1.,0.,0.));
#1154 = ADVANCED_FACE('',(#1155),#1166,.F.);
#1155 = FACE_BOUND('',#1156,.F.);
#1156 = EDGE_LOOP('',(#1157,#1158,#1159,#1160));
#1157 = ORIENTED_EDGE('',*,*,#1033,.F.);
#1158 = ORIENTED_EDGE('',*,*,#855,.T.);
#1159 = ORIENTED_EDGE('',*,*,#1089,.T.);
#1160 = ORIENTED_EDGE('',*,*,#1161,.F.);
#1161 = EDGE_CURVE('',#1034,#1090,#1162,.T.);
#1162 = LINE('',#1163,#1164);
#1163 = CARTESIAN_POINT('',(-22.,2.,3.));
#1164 = VECTOR('',#1165,1.);
#1165 = DIRECTION('',(-1.224646799147E-16,-1.,0.));
#1166 = PLANE('',#1167);
#1167 = AXIS2_PLACEMENT_3D('',#1168,#1169,#1170);
#1168 = CARTESIAN_POINT('',(-22.,2.,-3.));
#1169 = DIRECTION('',(-1.,1.224646799147E-16,0.));
#1170 = DIRECTION('',(0.,0.,1.));
#1171 = ADVANCED_FACE('',(#1172),#1183,.F.);
#1172 = FACE_BOUND('',#1173,.F.);
#1173 = EDGE_LOOP('',(#1174,#1175,#1176,#1177));
#1174 = ORIENTED_EDGE('',*,*,#871,.F.);
#1175 = ORIENTED_EDGE('',*,*,#825,.T.);
#1176 = ORIENTED_EDGE('',*,*,#927,.T.);
#1177 = ORIENTED_EDGE('',*,*,#1178,.F.);
#1178 = EDGE_CURVE('',#872,#928,#1179,.T.);
#1179 = LINE('',#1180,#1181);
#1180 = CARTESIAN_POINT('',(12.732050807569,18.052558883258,3.));
#1181 = VECTOR('',#1182,1.);
#1182 = DIRECTION('',(-0.866025403784,0.5,0.));
#1183 = PLANE('',#1184);
#1184 = AXIS2_PLACEMENT_3D('',#1185,#1186,#1187);
#1185 = CARTESIAN_POINT('',(12.732050807569,18.052558883258,-3.));
#1186 = DIRECTION('',(0.5,0.866025403784,0.));
#1187 = DIRECTION('',(0.,0.,1.));
#1188 = ADVANCED_FACE('',(#1189),#1200,.F.);
#1189 = FACE_BOUND('',#1190,.F.);
#1190 = EDGE_LOOP('',(#1191,#1192,#1193,#1194));
#1191 = ORIENTED_EDGE('',*,*,#1008,.F.);
#1192 = ORIENTED_EDGE('',*,*,#778,.T.);
#1193 = ORIENTED_EDGE('',*,*,#952,.T.);
#1194 = ORIENTED_EDGE('',*,*,#1195,.F.);
#1195 = EDGE_CURVE('',#1009,#953,#1196,.T.);
#1196 = LINE('',#1197,#1198);
#1197 = CARTESIAN_POINT('',(9.267949192431,-20.05255888325,3.));
#1198 = VECTOR('',#1199,1.);
#1199 = DIRECTION('',(0.866025403784,0.5,0.));
#1200 = PLANE('',#1201);
#1201 = AXIS2_PLACEMENT_3D('',#1202,#1203,#1204);
#1202 = CARTESIAN_POINT('',(9.267949192431,-20.05255888325,-3.));
#1203 = DIRECTION('',(0.5,-0.866025403784,0.));
#1204 = DIRECTION('',(0.,0.,1.));
#1205 = ADVANCED_FACE('',(#1206),#1212,.T.);
#1206 = FACE_BOUND('',#1207,.T.);
#1207 = EDGE_LOOP('',(#1208,#1209,#1210,#1211));
#1208 = ORIENTED_EDGE('',*,*,#1178,.F.);
#1209 = ORIENTED_EDGE('',*,*,#879,.T.);
#1210 = ORIENTED_EDGE('',*,*,#912,.T.);
#1211 = ORIENTED_EDGE('',*,*,#935,.F.);
#1212 = PLANE('',#1213);
#1213 = AXIS2_PLACEMENT_3D('',#1214,#1215,#1216);
#1214 = CARTESIAN_POINT('',(12.732050807569,18.052558883258,3.));
#1215 = DIRECTION('',(0.,0.,1.));
#1216 = DIRECTION('',(0.5,0.866025403784,0.));
#1217 = ADVANCED_FACE('',(#1218),#1224,.T.);
#1218 = FACE_BOUND('',#1219,.T.);
#1219 = EDGE_LOOP('',(#1220,#1221,#1222,#1223));
#1220 = ORIENTED_EDGE('',*,*,#1195,.F.);
#1221 = ORIENTED_EDGE('',*,*,#1016,.T.);
#1222 = ORIENTED_EDGE('',*,*,#993,.T.);
#1223 = ORIENTED_EDGE('',*,*,#960,.F.);
#1224 = PLANE('',#1225);
#1225 = AXIS2_PLACEMENT_3D('',#1226,#1227,#1228);
#1226 = CARTESIAN_POINT('',(9.267949192431,-20.05255888325,3.));
#1227 = DIRECTION('',(0.,0.,1.));
#1228 = DIRECTION('',(0.5,-0.866025403784,0.));
#1229 = ADVANCED_FACE('',(#1230),#1236,.T.);
#1230 = FACE_BOUND('',#1231,.T.);
#1231 = EDGE_LOOP('',(#1232,#1233,#1234,#1235));
#1232 = ORIENTED_EDGE('',*,*,#1161,.F.);
#1233 = ORIENTED_EDGE('',*,*,#1041,.T.);
#1234 = ORIENTED_EDGE('',*,*,#1074,.T.);
#1235 = ORIENTED_EDGE('',*,*,#1097,.F.);
#1236 = PLANE('',#1237);
#1237 = AXIS2_PLACEMENT_3D('',#1238,#1239,#1240);
#1238 = CARTESIAN_POINT('',(-22.,2.,3.));
#1239 = DIRECTION('',(0.,0.,1.));
#1240 = DIRECTION('',(-1.,1.224646799147E-16,0.));
#1241 = ADVANCED_FACE('',(#1242,#1314,#1320,#1326,#1332),#1335,.F.);
#1242 = FACE_BOUND('',#1243,.T.);
#1243 = EDGE_LOOP('',(#1244,#1253,#1262,#1271,#1280,#1289,#1296,#1297,
    #1306,#1313));
#1244 = ORIENTED_EDGE('',*,*,#1245,.T.);
#1245 = EDGE_CURVE('',#364,#1246,#1248,.T.);
#1246 = VERTEX_POINT('',#1247);
#1247 = CARTESIAN_POINT('',(2.2,53.,-3.));
#1248 = CIRCLE('',#1249,2.2);
#1249 = AXIS2_PLACEMENT_3D('',#1250,#1251,#1252);
#1250 = CARTESIAN_POINT('',(3.24531401774E-15,53.,-3.));
#1251 = DIRECTION('',(0.,0.,1.));
#1252 = DIRECTION('',(1.,0.,0.));
#1253 = ORIENTED_EDGE('',*,*,#1254,.T.);
#1254 = EDGE_CURVE('',#1246,#1255,#1257,.T.);
#1255 = VERTEX_POINT('',#1256);
#1256 = CARTESIAN_POINT('',(0.933614114642,54.992075471698,-3.));
#1257 = CIRCLE('',#1258,2.2);
#1258 = AXIS2_PLACEMENT_3D('',#1259,#1260,#1261);
#1259 = CARTESIAN_POINT('',(3.24531401774E-15,53.,-3.));
#1260 = DIRECTION('',(0.,0.,1.));
#1261 = DIRECTION('',(1.,0.,0.));
#1262 = ORIENTED_EDGE('',*,*,#1263,.F.);
#1263 = EDGE_CURVE('',#1264,#1255,#1266,.T.);
#1264 = VERTEX_POINT('',#1265);
#1265 = CARTESIAN_POINT('',(55.,-1.347111479062E-14,-3.));
#1266 = CIRCLE('',#1267,55.);
#1267 = AXIS2_PLACEMENT_3D('',#1268,#1269,#1270);
#1268 = CARTESIAN_POINT('',(0.,0.,-3.));
#1269 = DIRECTION('',(0.,0.,1.));
#1270 = DIRECTION('',(1.,0.,0.));
#1271 = ORIENTED_EDGE('',*,*,#1272,.F.);
#1272 = EDGE_CURVE('',#1273,#1264,#1275,.T.);
#1273 = VERTEX_POINT('',#1274);
#1274 = CARTESIAN_POINT('',(48.091341422643,-26.68750419523,-3.));
#1275 = CIRCLE('',#1276,55.);
#1276 = AXIS2_PLACEMENT_3D('',#1277,#1278,#1279);
#1277 = CARTESIAN_POINT('',(0.,0.,-3.));
#1278 = DIRECTION('',(0.,0.,1.));
#1279 = DIRECTION('',(1.,0.,0.));
#1280 = ORIENTED_EDGE('',*,*,#1281,.T.);
#1281 = EDGE_CURVE('',#1273,#1282,#1284,.T.);
#1282 = VERTEX_POINT('',#1283);
#1283 = CARTESIAN_POINT('',(48.099346400575,-26.5,-3.));
#1284 = CIRCLE('',#1285,2.2);
#1285 = AXIS2_PLACEMENT_3D('',#1286,#1287,#1288);
#1286 = CARTESIAN_POINT('',(45.899346400575,-26.5,-3.));
#1287 = DIRECTION('',(0.,0.,1.));
#1288 = DIRECTION('',(1.,0.,0.));
#1289 = ORIENTED_EDGE('',*,*,#1290,.T.);
#1290 = EDGE_CURVE('',#1282,#323,#1291,.T.);
#1291 = CIRCLE('',#1292,2.2);
#1292 = AXIS2_PLACEMENT_3D('',#1293,#1294,#1295);
#1293 = CARTESIAN_POINT('',(45.899346400575,-26.5,-3.));
#1294 = DIRECTION('',(0.,0.,1.));
#1295 = DIRECTION('',(1.,0.,0.));
#1296 = ORIENTED_EDGE('',*,*,#339,.F.);
#1297 = ORIENTED_EDGE('',*,*,#1298,.T.);
#1298 = EDGE_CURVE('',#332,#1299,#1301,.T.);
#1299 = VERTEX_POINT('',#1300);
#1300 = CARTESIAN_POINT('',(-43.69934640057,-26.5,-3.));
#1301 = CIRCLE('',#1302,2.2);
#1302 = AXIS2_PLACEMENT_3D('',#1303,#1304,#1305);
#1303 = CARTESIAN_POINT('',(-45.89934640057,-26.5,-3.));
#1304 = DIRECTION('',(0.,0.,1.));
#1305 = DIRECTION('',(1.,0.,0.));
#1306 = ORIENTED_EDGE('',*,*,#1307,.T.);
#1307 = EDGE_CURVE('',#1299,#355,#1308,.T.);
#1308 = CIRCLE('',#1309,2.2);
#1309 = AXIS2_PLACEMENT_3D('',#1310,#1311,#1312);
#1310 = CARTESIAN_POINT('',(-45.89934640057,-26.5,-3.));
#1311 = DIRECTION('',(0.,0.,1.));
#1312 = DIRECTION('',(1.,0.,0.));
#1313 = ORIENTED_EDGE('',*,*,#371,.F.);
#1314 = FACE_BOUND('',#1315,.F.);
#1315 = EDGE_LOOP('',(#1316,#1317,#1318,#1319));
#1316 = ORIENTED_EDGE('',*,*,#668,.F.);
#1317 = ORIENTED_EDGE('',*,*,#732,.T.);
#1318 = ORIENTED_EDGE('',*,*,#706,.T.);
#1319 = ORIENTED_EDGE('',*,*,#643,.F.);
#1320 = FACE_BOUND('',#1321,.F.);
#1321 = EDGE_LOOP('',(#1322,#1323,#1324,#1325));
#1322 = ORIENTED_EDGE('',*,*,#548,.F.);
#1323 = ORIENTED_EDGE('',*,*,#610,.T.);
#1324 = ORIENTED_EDGE('',*,*,#586,.T.);
#1325 = ORIENTED_EDGE('',*,*,#523,.F.);
#1326 = FACE_BOUND('',#1327,.F.);
#1327 = EDGE_LOOP('',(#1328,#1329,#1330,#1331));
#1328 = ORIENTED_EDGE('',*,*,#428,.F.);
#1329 = ORIENTED_EDGE('',*,*,#490,.T.);
#1330 = ORIENTED_EDGE('',*,*,#466,.T.);
#1331 = ORIENTED_EDGE('',*,*,#403,.F.);
#1332 = FACE_BOUND('',#1333,.F.);
#1333 = EDGE_LOOP('',(#1334));
#1334 = ORIENTED_EDGE('',*,*,#1142,.F.);
#1335 = PLANE('',#1336);
#1336 = AXIS2_PLACEMENT_3D('',#1337,#1338,#1339);
#1337 = CARTESIAN_POINT('',(0.,0.,-3.));
#1338 = DIRECTION('',(0.,0.,1.));
#1339 = DIRECTION('',(1.,0.,0.));
#1340 = ADVANCED_FACE('',(#1341),#1359,.T.);
#1341 = FACE_BOUND('',#1342,.T.);
#1342 = EDGE_LOOP('',(#1343,#1344,#1350,#1351,#1352,#1358));
#1343 = ORIENTED_EDGE('',*,*,#1263,.T.);
#1344 = ORIENTED_EDGE('',*,*,#1345,.T.);
#1345 = EDGE_CURVE('',#1255,#96,#1346,.T.);
#1346 = LINE('',#1347,#1348);
#1347 = CARTESIAN_POINT('',(0.933614114642,54.992075471698,-3.));
#1348 = VECTOR('',#1349,1.);
#1349 = DIRECTION('',(0.,0.,1.));
#1350 = ORIENTED_EDGE('',*,*,#95,.F.);
#1351 = ORIENTED_EDGE('',*,*,#86,.F.);
#1352 = ORIENTED_EDGE('',*,*,#1353,.F.);
#1353 = EDGE_CURVE('',#1273,#78,#1354,.T.);
#1354 = LINE('',#1355,#1356);
#1355 = CARTESIAN_POINT('',(48.091341422643,-26.68750419523,-3.));
#1356 = VECTOR('',#1357,1.);
#1357 = DIRECTION('',(0.,0.,1.));
#1358 = ORIENTED_EDGE('',*,*,#1272,.T.);
#1359 = CYLINDRICAL_SURFACE('',#1360,55.);
#1360 = AXIS2_PLACEMENT_3D('',#1361,#1362,#1363);
#1361 = CARTESIAN_POINT('',(0.,0.,-3.));
#1362 = DIRECTION('',(0.,0.,1.));
#1363 = DIRECTION('',(1.,0.,0.));
#1364 = ADVANCED_FACE('',(#1365),#1373,.F.);
#1365 = FACE_BOUND('',#1366,.F.);
#1366 = EDGE_LOOP('',(#1367,#1368,#1369,#1370,#1371,#1372));
#1367 = ORIENTED_EDGE('',*,*,#322,.T.);
#1368 = ORIENTED_EDGE('',*,*,#68,.F.);
#1369 = ORIENTED_EDGE('',*,*,#77,.F.);
#1370 = ORIENTED_EDGE('',*,*,#1353,.F.);
#1371 = ORIENTED_EDGE('',*,*,#1281,.T.);
#1372 = ORIENTED_EDGE('',*,*,#1290,.T.);
#1373 = CYLINDRICAL_SURFACE('',#1374,2.2);
#1374 = AXIS2_PLACEMENT_3D('',#1375,#1376,#1377);
#1375 = CARTESIAN_POINT('',(45.899346400575,-26.5,-7.));
#1376 = DIRECTION('',(0.,0.,1.));
#1377 = DIRECTION('',(1.,0.,0.));
#1378 = ADVANCED_FACE('',(#1379),#1387,.F.);
#1379 = FACE_BOUND('',#1380,.F.);
#1380 = EDGE_LOOP('',(#1381,#1382,#1383,#1384,#1385,#1386));
#1381 = ORIENTED_EDGE('',*,*,#363,.F.);
#1382 = ORIENTED_EDGE('',*,*,#1245,.T.);
#1383 = ORIENTED_EDGE('',*,*,#1254,.T.);
#1384 = ORIENTED_EDGE('',*,*,#1345,.T.);
#1385 = ORIENTED_EDGE('',*,*,#104,.F.);
#1386 = ORIENTED_EDGE('',*,*,#21,.F.);
#1387 = CYLINDRICAL_SURFACE('',#1388,2.2);
#1388 = AXIS2_PLACEMENT_3D('',#1389,#1390,#1391);
#1389 = CARTESIAN_POINT('',(3.24531401774E-15,53.,-7.));
#1390 = DIRECTION('',(0.,0.,1.));
#1391 = DIRECTION('',(1.,0.,0.));
#1392 = ADVANCED_FACE('',(#1393),#1401,.F.);
#1393 = FACE_BOUND('',#1394,.F.);
#1394 = EDGE_LOOP('',(#1395,#1396,#1397,#1398,#1399,#1400));
#1395 = ORIENTED_EDGE('',*,*,#354,.T.);
#1396 = ORIENTED_EDGE('',*,*,#41,.F.);
#1397 = ORIENTED_EDGE('',*,*,#50,.F.);
#1398 = ORIENTED_EDGE('',*,*,#331,.F.);
#1399 = ORIENTED_EDGE('',*,*,#1298,.T.);
#1400 = ORIENTED_EDGE('',*,*,#1307,.T.);
#1401 = CYLINDRICAL_SURFACE('',#1402,2.2);
#1402 = AXIS2_PLACEMENT_3D('',#1403,#1404,#1405);
#1403 = CARTESIAN_POINT('',(-45.89934640057,-26.5,-7.));
#1404 = DIRECTION('',(0.,0.,1.));
#1405 = DIRECTION('',(1.,0.,0.));
#1406 = ( GEOMETRIC_REPRESENTATION_CONTEXT(3) 
GLOBAL_UNCERTAINTY_ASSIGNED_CONTEXT((#1410)) 
GLOBAL_UNIT_ASSIGNED_CONTEXT((#1407,#1408,#1409)) REPRESENTATION_CONTEXT
('Context #1','3D Context with UNIT and UNCERTAINTY') );
#1407 = ( LENGTH_UNIT() NAMED_UNIT(*) SI_UNIT(.MILLI.,.METRE.) );
#1408 = ( NAMED_UNIT(*) PLANE_ANGLE_UNIT() SI_UNIT($,.RADIAN.) );
#1409 = ( NAMED_UNIT(*) SI_UNIT($,.STERADIAN.) SOLID_ANGLE_UNIT() );
#1410 = UNCERTAINTY_MEASURE_WITH_UNIT(LENGTH_MEASURE(1.E-07),#1407,
  'distance_accuracy_value','confusion accuracy');
#1411 = PRODUCT_RELATED_PRODUCT_CATEGORY('part',$,(#7));
ENDSEC;
END-ISO-10303-21;
